<?xml version="1.0" standalone="no"?>
<!DOCTYPE svg PUBLIC "-//W3C//DTD SVG 20010904//EN"
 "http://www.w3.org/TR/2001/REC-SVG-20010904/DTD/svg10.dtd">
<svg version="1.0" xmlns="http://www.w3.org/2000/svg"
 width="700.000000pt" height="700.000000pt" viewBox="0 0 700.000000 700.000000"
 preserveAspectRatio="xMidYMid meet">
<metadata>
Created by potrace 1.14, written by Peter Selinger 2001-2017
</metadata>
<g transform="translate(0.000000,700.000000) scale(0.100000,-0.100000)"
fill="#000000" stroke="none">
<path d="M5098 6935 c-43 -30 -78 -51 -78 -48 0 3 -11 -6 -25 -21 -14 -15 -25
-24 -25 -20 0 4 -7 -1 -16 -12 -8 -10 -13 -12 -9 -4 4 8 -3 4 -15 -10 -12 -13
-28 -25 -35 -26 -8 -1 -26 -14 -40 -30 -14 -15 -25 -24 -25 -20 0 5 -24 -11
-52 -35 -70 -57 -78 -64 -114 -96 -16 -15 -44 -39 -61 -53 -17 -13 -29 -28
-27 -32 3 -4 1 -8 -4 -8 -13 0 -62 -47 -56 -53 3 -3 -3 -8 -14 -11 -10 -4 -24
-18 -30 -31 -6 -14 -16 -25 -22 -25 -5 0 -9 -3 -8 -7 2 -5 -8 -25 -21 -46 -12
-21 -20 -44 -17 -53 3 -8 2 -12 -4 -9 -6 3 -10 1 -10 -4 0 -13 -22 -10 -32 4
-5 6 -8 4 -8 -5 0 -11 -2 -12 -8 -3 -4 7 -27 14 -50 15 -23 2 -42 5 -42 9 0 3
-10 6 -22 7 -60 5 -85 9 -96 16 -7 4 -12 2 -12 -6 0 -10 -2 -10 -8 -1 -4 6
-34 14 -67 17 -33 2 -60 5 -60 6 0 1 -29 3 -65 4 -36 1 -71 5 -78 10 -7 4 -12
3 -12 -2 0 -5 -17 -6 -40 -2 -22 4 -40 3 -40 -2 0 -5 -9 -4 -20 2 -14 8 -20 8
-20 0 0 -6 -5 -8 -12 -4 -19 12 -48 12 -48 1 0 -5 -7 -4 -15 3 -12 10 -15 10
-15 -1 0 -11 -2 -11 -10 1 -5 8 -10 11 -10 5 0 -6 -30 -10 -73 -9 -39 0 -80
-4 -91 -9 -13 -6 -21 -5 -26 3 -5 8 -13 9 -21 4 -16 -10 -32 -13 -98 -18 -25
-2 -46 -5 -46 -6 0 -1 -16 -4 -35 -6 -37 -4 -75 -11 -75 -14 0 -1 -16 -3 -35
-6 -40 -5 -74 -12 -77 -14 -3 -3 -2 -2 -78 -20 -33 -8 -64 -15 -70 -15 -5 0
-15 -3 -20 -7 -6 -3 -27 -9 -48 -13 -20 -4 -37 -12 -37 -18 0 -6 -3 -7 -7 -4
-3 4 -13 1 -21 -6 -11 -8 -14 -8 -9 0 5 7 -3 6 -22 -3 -17 -8 -40 -17 -52 -19
-13 -3 -27 -9 -33 -15 -5 -5 -20 -10 -32 -10 -13 0 -26 -4 -29 -10 -3 -5 -15
-10 -26 -10 -10 0 -19 -5 -19 -12 0 -6 -3 -8 -7 -5 -3 4 -15 -1 -26 -10 -10
-10 -21 -17 -23 -15 -11 8 -93 -32 -87 -42 3 -6 3 -8 -1 -4 -11 9 -66 -12 -66
-25 0 -7 -5 -5 -10 3 -7 11 -10 11 -10 2 0 -7 -16 -20 -35 -28 -19 -8 -35 -19
-35 -25 0 -5 -4 -8 -9 -4 -5 3 -12 1 -16 -5 -4 -6 -11 -8 -16 -5 -5 4 -9 1 -9
-5 0 -6 -13 -16 -30 -21 -16 -6 -30 -15 -30 -21 0 -5 -4 -6 -10 -3 -5 3 -10 2
-10 -2 0 -8 -45 -38 -65 -44 -5 -1 -16 -9 -24 -16 -8 -8 -26 -22 -40 -31 -29
-19 -34 -23 -76 -57 -16 -14 -38 -28 -47 -31 -9 -3 -20 -14 -23 -25 -4 -10
-10 -17 -15 -14 -5 3 -17 -6 -28 -20 -11 -13 -22 -22 -25 -18 -4 3 -9 -2 -13
-11 -3 -9 -13 -16 -21 -16 -8 0 -11 -4 -8 -10 3 -5 0 -10 -7 -10 -7 -1 -24
-14 -38 -30 -13 -17 -31 -30 -40 -31 -10 0 -11 -2 -2 -6 6 -2 9 -9 6 -15 -4
-6 2 -6 14 1 12 6 25 11 29 10 4 -1 10 0 13 1 9 3 44 10 63 12 9 1 17 5 17 8
0 3 17 6 38 7 20 1 51 5 67 8 17 3 45 7 63 8 17 1 32 4 32 8 0 10 44 5 52 -6
5 -6 8 -6 8 1 0 17 162 21 168 5 2 -5 11 -7 21 -4 10 3 22 -1 26 -8 5 -8 4
-10 -3 -5 -7 4 -12 3 -12 -3 0 -9 -44 -37 -67 -43 -5 -1 -17 -12 -28 -24 -11
-11 -26 -19 -32 -17 -7 3 -13 0 -13 -6 0 -6 -7 -11 -15 -11 -8 0 -15 -4 -15
-10 0 -5 -11 -12 -24 -16 -14 -3 -27 -12 -30 -21 -3 -8 -10 -12 -15 -8 -6 3
-14 -3 -20 -12 -6 -10 -11 -14 -11 -8 0 5 -7 -1 -16 -13 -8 -12 -19 -20 -24
-17 -5 3 -13 -3 -19 -12 -6 -10 -11 -15 -11 -11 0 5 -12 -2 -26 -15 -14 -12
-28 -21 -31 -19 -2 2 -13 -7 -24 -19 -10 -12 -19 -19 -19 -16 0 7 -29 -14 -62
-45 -10 -10 -18 -15 -18 -12 0 4 -11 -5 -24 -19 -13 -14 -27 -23 -30 -20 -3 3
-8 -2 -12 -11 -3 -9 -10 -14 -14 -11 -4 3 -10 -2 -14 -10 -3 -8 -13 -15 -21
-15 -9 0 -13 -4 -10 -10 3 -5 1 -10 -5 -10 -6 0 -18 -6 -25 -12 -8 -7 -20 -17
-27 -23 -71 -55 -163 -130 -182 -150 -14 -14 -28 -25 -31 -25 -12 0 -34 -28
-28 -34 4 -3 0 -6 -8 -6 -8 0 -28 -15 -44 -32 -17 -18 -45 -44 -62 -58 -17
-13 -29 -28 -27 -32 3 -4 0 -8 -6 -8 -15 0 -41 -26 -33 -34 4 -3 -1 -6 -11 -6
-9 0 -14 -4 -11 -10 3 -5 2 -10 -3 -10 -5 0 -19 -9 -32 -20 -13 -11 -21 -20
-18 -20 3 0 -23 -29 -57 -65 -35 -36 -61 -65 -58 -65 2 0 -8 -13 -24 -29 -38
-40 -63 -70 -92 -111 -13 -19 -29 -38 -35 -42 -6 -4 -8 -8 -4 -8 6 0 -17 -30
-55 -71 -9 -10 -18 -22 -18 -26 -4 -23 -20 -53 -28 -53 -5 0 -13 -10 -17 -22
-3 -12 -15 -31 -25 -42 -11 -11 -17 -26 -15 -32 3 -7 -2 -15 -11 -18 -8 -4
-13 -13 -10 -20 3 -8 -1 -17 -9 -20 -9 -3 -12 -10 -9 -16 3 -5 1 -10 -5 -10
-6 0 -9 -4 -6 -9 3 -5 -1 -14 -9 -21 -8 -7 -15 -19 -15 -26 0 -8 -4 -14 -9
-14 -6 0 -8 -9 -6 -20 2 -11 0 -18 -6 -15 -5 4 -9 -2 -9 -12 0 -10 -8 -35 -19
-56 -10 -20 -15 -34 -10 -31 5 3 9 1 9 -5 0 -5 -4 -11 -10 -13 -5 -1 -11 -12
-13 -23 -1 -11 -6 -26 -10 -32 -5 -7 -4 -13 2 -13 5 0 15 8 20 18 6 9 11 13
11 9 0 -5 12 1 26 12 15 12 33 21 40 21 8 0 14 5 14 11 0 5 5 7 10 4 6 -3 10
-1 10 4 0 6 7 11 15 11 8 0 15 5 15 10 0 6 6 10 14 10 8 0 22 7 30 16 9 8 16
13 16 9 0 -3 14 3 30 15 17 12 30 18 30 13 0 -4 7 1 16 12 8 11 17 19 19 18 3
-2 7 -2 10 -2 3 1 8 2 13 3 4 1 22 10 40 19 18 10 36 15 41 12 5 -2 12 2 15
10 3 8 9 15 13 14 4 -1 10 0 13 1 5 2 29 7 52 13 7 1 19 6 26 10 6 5 12 5 12
1 0 -3 7 -1 15 6 11 9 15 9 15 1 0 -7 5 -9 13 -4 20 13 35 12 41 -3 3 -7 1
-16 -5 -19 -5 -4 -7 -11 -4 -16 4 -5 1 -9 -4 -9 -6 0 -11 -5 -11 -10 0 -6 -9
-30 -20 -52 -11 -23 -20 -48 -20 -55 0 -7 -4 -13 -8 -13 -4 0 -8 -10 -9 -22
-1 -11 -8 -25 -15 -29 -7 -4 -10 -11 -6 -14 3 -4 0 -22 -8 -41 -8 -19 -12 -39
-9 -44 4 -6 1 -10 -5 -10 -6 0 -8 -4 -5 -10 3 -5 2 -10 -4 -10 -5 0 -8 -9 -6
-20 2 -11 0 -20 -4 -20 -4 0 -8 -6 -9 -12 -5 -42 -10 -73 -12 -73 -2 0 -10
-35 -12 -57 -1 -10 -5 -18 -8 -18 -3 0 -6 -17 -7 -38 -1 -20 -5 -59 -8 -87 -3
-27 -7 -69 -8 -92 -1 -24 -5 -43 -9 -43 -3 0 -3 -13 2 -29 4 -16 5 -32 2 -36
-11 -11 -8 -99 3 -107 6 -5 5 -8 -3 -8 -10 0 -10 -5 -2 -20 6 -11 7 -20 2 -20
-5 0 -7 -17 -5 -37 9 -82 11 -98 13 -98 1 0 3 -27 4 -60 2 -33 6 -68 11 -77 4
-10 5 -25 2 -33 -4 -8 -2 -17 3 -20 5 -3 9 -13 9 -23 0 -14 7 -60 16 -97 9
-39 18 -72 22 -85 4 -8 5 -20 4 -27 -1 -6 3 -14 8 -18 6 -3 8 -12 5 -19 -3 -8
-1 -17 5 -21 6 -3 11 -17 11 -30 0 -13 4 -26 10 -30 5 -3 7 -12 3 -20 -3 -8 0
-15 7 -15 6 0 9 -4 5 -9 -3 -5 -1 -12 5 -16 6 -4 8 -11 5 -16 -4 -5 -2 -9 4
-9 6 0 8 -7 5 -15 -4 -8 -1 -15 6 -15 6 0 9 -4 6 -9 -3 -4 1 -17 9 -27 8 -10
15 -29 15 -41 0 -13 5 -23 11 -23 5 0 7 -4 4 -10 -3 -5 -1 -10 6 -10 7 0 10
-3 6 -6 -3 -4 0 -19 8 -34 8 -15 11 -30 8 -34 -4 -3 -2 -6 3 -6 6 0 16 -16 24
-35 8 -19 17 -35 22 -35 4 0 7 -4 5 -8 -3 -10 45 -106 55 -110 5 -2 8 -12 8
-23 0 -10 5 -19 10 -19 6 0 10 -7 10 -15 0 -8 3 -15 8 -15 4 0 16 -18 26 -40
11 -22 23 -40 27 -40 4 0 12 -13 18 -30 5 -16 15 -30 20 -30 6 0 10 -3 9 -7
-3 -11 35 -73 44 -73 4 0 8 -4 8 -10 0 -5 7 -18 15 -27 8 -10 14 -21 13 -24
-2 -3 9 -16 23 -30 14 -13 37 -41 51 -61 13 -21 28 -35 31 -31 4 3 7 0 7 -8 0
-8 9 -21 20 -29 11 -8 20 -17 20 -21 0 -12 148 -158 154 -152 3 4 6 -1 6 -10
0 -9 4 -17 9 -17 5 0 33 -22 63 -50 90 -84 97 -90 107 -90 6 0 14 -6 18 -13 4
-8 16 -17 26 -20 10 -4 15 -11 12 -17 -3 -5 3 -10 14 -10 11 0 25 -9 31 -20 6
-11 19 -20 28 -20 10 0 24 -9 32 -20 8 -11 20 -20 26 -20 7 0 20 -7 28 -16 9
-8 16 -13 16 -10 0 3 11 -4 24 -15 13 -12 27 -20 31 -19 4 1 15 -8 24 -19 10
-11 21 -18 25 -14 3 3 6 1 6 -6 0 -7 5 -9 10 -6 6 3 10 2 10 -3 0 -6 11 -13
25 -16 14 -4 25 -11 25 -17 0 -6 5 -7 10 -4 6 3 13 0 16 -9 3 -8 12 -12 20 -9
8 3 14 0 14 -6 0 -6 6 -11 14 -11 7 0 19 -7 26 -15 7 -8 16 -12 21 -9 5 3 9 0
9 -6 0 -6 5 -8 10 -5 6 3 10 3 10 -2 0 -8 57 -37 73 -38 4 0 11 -4 15 -10 4
-5 16 -12 27 -13 11 -2 24 -8 30 -13 5 -5 17 -9 27 -9 10 0 18 -4 18 -9 0 -5
17 -15 38 -22 20 -6 40 -16 43 -21 4 -6 18 -11 33 -11 14 -1 26 -5 26 -9 0 -5
11 -8 25 -8 14 0 25 -4 25 -8 0 -5 11 -14 25 -20 19 -9 25 -9 25 1 0 8 3 8 8
1 10 -14 66 -39 140 -60 34 -10 62 -22 62 -27 0 -4 4 -5 10 -2 5 3 25 -1 45
-11 19 -9 46 -17 60 -18 14 0 25 -5 25 -9 0 -5 5 -5 10 -2 6 3 10 2 10 -3 0
-5 11 -8 25 -7 16 2 23 -1 19 -7 -5 -7 3 -9 20 -6 16 3 29 1 32 -6 2 -6 20
-12 40 -13 19 -1 41 -6 48 -12 7 -6 27 -11 44 -13 18 -1 32 -5 32 -9 0 -3 14
-5 30 -4 17 1 30 -2 30 -6 0 -4 9 -6 20 -4 11 2 20 0 20 -4 0 -4 6 -8 13 -8 6
0 26 -4 42 -7 17 -4 45 -9 64 -12 18 -2 42 -9 52 -15 12 -6 19 -6 19 0 0 6 13
5 33 -3 17 -7 38 -11 45 -9 6 3 12 0 12 -7 0 -8 6 -8 20 0 15 8 20 8 20 -1 0
-6 9 -9 20 -6 11 3 20 2 20 -2 0 -4 16 -8 35 -9 61 -3 70 -5 77 -16 5 -8 8 -7
8 1 0 7 6 10 13 8 6 -3 30 -7 52 -9 22 -2 40 -5 40 -6 0 -1 18 -4 40 -5 131
-12 185 -14 186 -7 0 4 3 16 6 27 2 11 5 30 6 42 0 12 5 19 9 17 4 -3 8 6 8
20 0 14 4 27 9 30 5 4 8 14 6 24 -1 9 1 27 6 38 4 12 11 41 14 65 4 24 11 52
17 62 8 15 7 18 -3 12 -8 -6 -10 -4 -4 5 4 7 9 23 11 34 2 12 6 33 9 48 3 15
7 51 10 80 7 77 11 104 19 116 3 6 2 13 -4 17 -7 4 -7 12 0 26 8 14 7 19 -1
19 -9 0 -9 3 0 14 8 10 9 16 1 21 -6 3 -7 12 -3 18 12 19 11 127 -1 127 -7 0
-8 3 -1 8 14 10 17 32 5 32 -7 0 -7 6 -1 19 6 10 7 21 3 25 -3 4 -7 26 -9 49
-1 23 -8 74 -15 112 -6 39 -12 77 -12 85 0 8 -3 17 -7 20 -4 3 -9 19 -12 35
-2 17 -6 37 -10 45 -14 38 -31 96 -29 103 1 4 -3 7 -8 7 -6 0 -10 9 -10 20 0
11 -5 20 -12 20 -6 0 -9 3 -5 6 3 4 -1 21 -10 38 -10 17 -16 34 -15 39 1 4 -3
7 -8 7 -6 0 -10 6 -10 14 0 7 -7 19 -15 26 -9 7 -13 15 -11 17 4 4 -13 28 -41
58 -7 8 -13 18 -13 24 0 6 -5 11 -11 11 -5 0 -7 5 -4 10 3 6 -1 13 -9 16 -9 3
-16 12 -16 20 0 8 -4 14 -10 14 -5 0 -10 7 -10 15 0 9 -7 18 -15 21 -8 4 -12
10 -9 15 3 5 0 9 -5 9 -6 0 -11 7 -11 15 0 7 -8 19 -17 24 -10 6 -14 11 -10
11 5 0 -1 13 -12 29 -12 16 -21 34 -21 40 0 6 -3 11 -7 11 -5 0 -13 11 -20 25
-8 19 -8 23 0 19 7 -4 2 3 -10 15 -13 12 -23 28 -23 35 0 8 -6 19 -14 25 -8 7
-17 27 -20 46 -4 19 -12 35 -18 35 -5 0 -8 7 -4 15 3 8 1 15 -4 15 -9 0 -26
39 -22 53 1 4 -3 7 -8 7 -5 0 -9 3 -8 8 0 4 -2 15 -5 25 -11 28 -16 47 -16 53
0 4 -4 10 -10 13 -6 4 -13 18 -15 31 -2 14 -5 26 -7 28 -1 1 -3 7 -4 12 -1 6
-4 12 -5 15 -1 3 -3 8 -4 13 -1 4 -10 30 -19 58 -10 28 -20 60 -22 72 -3 12
-7 31 -10 43 -2 11 -7 30 -11 42 -4 12 -9 29 -10 37 -5 30 -13 66 -18 90 -4
14 -7 40 -8 58 -1 17 -6 32 -11 32 -5 0 -5 6 2 13 6 8 9 16 6 19 -3 2 -7 31
-10 63 -4 32 -8 63 -11 67 -3 4 1 8 8 8 9 0 9 3 -2 10 -8 5 -10 10 -5 10 6 0
10 18 10 40 0 22 -4 40 -9 40 -5 0 -5 5 0 13 5 6 9 35 9 64 0 28 3 49 7 46 5
-2 7 4 6 14 -3 40 3 84 11 79 4 -3 6 6 3 19 -2 14 0 25 5 25 5 0 9 8 10 18 3
42 16 88 28 102 8 8 14 20 15 25 2 24 25 75 34 75 5 0 7 3 3 6 -3 4 -1 12 6
20 30 34 37 44 30 44 -4 0 1 7 11 15 11 8 16 15 11 15 -5 0 7 14 25 30 18 17
31 30 27 30 -3 0 5 11 19 25 14 14 29 25 34 25 6 0 10 8 10 17 0 9 3 14 6 11
3 -3 17 5 31 18 14 13 31 21 37 17 6 -3 8 -3 4 2 -8 8 25 37 55 48 9 3 17 11
17 17 0 6 5 8 10 5 6 -3 10 -2 10 3 0 5 8 9 17 9 18 0 58 -42 84 -88 9 -16 19
-26 23 -22 3 3 6 1 6 -6 0 -7 14 -26 31 -42 17 -16 28 -29 25 -29 -3 0 38 -44
91 -97 53 -54 96 -101 95 -105 -1 -5 3 -8 10 -8 12 0 15 -3 81 -65 20 -20 37
-33 37 -29 0 3 13 -8 29 -25 17 -18 33 -31 37 -30 7 2 46 -26 72 -53 9 -10 24
-18 34 -18 10 0 18 -4 18 -10 0 -5 6 -10 14 -10 8 0 16 -3 18 -7 2 -5 27 -19
56 -32 28 -14 52 -28 52 -33 0 -4 10 -8 23 -8 12 0 31 -7 41 -15 10 -8 23 -12
27 -9 5 3 9 0 9 -5 0 -6 10 -11 23 -11 13 0 27 -4 33 -10 5 -5 23 -11 39 -14
17 -2 38 -6 48 -10 38 -14 45 -14 57 -3 10 9 11 9 6 0 -7 -13 0 -16 37 -16 12
0 21 -13 29 -46 7 -25 12 -53 12 -61 0 -8 6 -21 13 -28 7 -8 11 -18 8 -23 -4
-5 -2 -9 3 -9 5 0 9 -7 9 -15 0 -22 45 -105 57 -105 6 0 5 -4 -3 -9 -11 -7 -9
-10 8 -16 12 -3 19 -11 16 -16 -4 -5 -1 -9 4 -9 6 0 11 -7 11 -15 0 -8 7 -15
16 -15 8 0 12 -5 9 -10 -3 -6 0 -10 7 -10 8 0 20 -9 28 -19 7 -11 17 -18 22
-15 4 3 8 1 8 -4 0 -9 50 -34 67 -34 4 0 14 -5 22 -11 7 -6 23 -12 35 -12 11
0 26 -3 31 -6 10 -5 126 -3 157 4 10 2 21 6 24 10 4 4 13 2 21 -4 10 -9 13 -8
13 0 0 7 4 10 9 6 5 -3 12 -1 16 5 4 6 10 8 15 5 5 -3 11 -1 15 5 3 5 17 10
30 10 13 0 27 5 30 10 4 6 11 8 16 5 5 -4 9 -1 9 6 0 7 3 9 7 6 3 -4 21 3 39
14 19 11 38 18 44 14 5 -3 10 -1 10 4 0 6 18 19 40 28 22 10 40 24 40 31 0 7
4 11 8 8 9 -5 42 29 42 44 0 5 8 14 18 19 9 6 13 11 8 11 -5 0 -1 9 8 19 10
11 19 25 20 33 8 40 19 68 27 68 5 0 6 7 3 15 -4 8 -2 15 2 15 5 0 10 15 12
33 2 33 9 72 12 72 7 0 4 78 -3 82 -4 2 -4 10 1 16 10 14 10 67 -1 85 -5 7 -3
12 3 12 6 0 8 5 5 10 -4 6 -8 20 -10 33 -5 27 -12 64 -19 96 -3 12 -10 29 -17
37 -6 8 -9 14 -6 14 10 0 -31 104 -42 108 -6 2 -18 18 -25 36 -7 18 -32 57
-55 87 -22 29 -41 60 -41 67 0 7 -4 11 -8 8 -4 -3 -17 12 -28 32 -10 20 -25
42 -32 47 -7 6 -14 17 -15 25 -2 8 -5 20 -8 25 -8 14 -23 68 -21 78 1 4 -3 7
-10 7 -6 0 -9 3 -6 6 4 3 0 21 -8 40 -8 19 -14 35 -14 36 -2 19 -14 48 -22 48
-5 0 -7 4 -4 9 4 5 2 20 -3 33 -5 12 -9 26 -10 31 0 4 -7 21 -16 37 -8 16 -16
40 -17 54 -1 13 -5 23 -9 20 -4 -2 -10 12 -13 31 -4 19 -11 35 -17 35 -6 0 -8
4 -4 10 3 5 2 17 -3 27 -9 17 -18 37 -41 96 -27 66 -36 93 -33 100 1 4 -3 7
-9 7 -5 0 -7 5 -4 10 3 6 1 10 -5 10 -7 0 -10 7 -6 15 3 8 1 15 -5 15 -6 0 -9
6 -6 14 3 8 -1 17 -9 20 -8 3 -14 17 -14 31 0 14 -3 25 -8 25 -4 0 -12 15 -19
33 -27 77 -40 108 -51 119 -6 6 -8 17 -5 26 4 10 2 13 -5 8 -7 -4 -12 -1 -12
8 0 13 -28 74 -40 86 -3 3 -5 10 -5 15 -1 14 -38 89 -48 96 -5 3 -9 10 -10 15
-2 20 -22 64 -29 64 -4 0 -5 7 -2 15 4 8 1 15 -4 15 -6 0 -14 9 -17 20 -4 11
-11 18 -16 14 -5 -3 -8 -2 -7 3 3 11 -25 83 -32 83 -6 0 -26 36 -29 53 0 4
-10 16 -21 27 -11 11 -20 27 -20 36 0 8 -4 12 -10 9 -5 -3 -10 0 -10 8 0 8 -7
20 -15 27 -8 7 -12 17 -8 24 3 6 3 8 -1 4 -5 -4 -23 12 -41 36 -18 23 -41 52
-51 65 -10 12 -20 26 -20 31 -1 6 -3 11 -4 13 -1 1 -4 16 -5 32 -2 17 -6 41
-9 55 -3 14 -7 47 -8 73 -2 26 -5 47 -8 47 -3 0 -5 17 -5 38 1 20 -2 49 -6 65
-5 18 -4 27 4 27 8 0 7 4 -2 9 -8 5 -11 16 -8 25 4 9 3 16 -1 16 -4 0 -8 38
-8 85 -1 61 1 83 10 78 8 -5 8 -3 0 8 -13 16 -13 117 -1 137 5 6 4 12 -1 12
-6 0 -7 13 -3 33 4 17 7 42 6 55 -1 12 1 22 5 22 3 0 5 12 4 27 0 15 7 54 17
85 10 34 13 58 7 58 -12 0 -72 -41 -76 -52 -2 -4 -9 -8 -16 -8 -7 0 -23 -11
-36 -25 -13 -14 -30 -25 -37 -25 -8 0 -11 -4 -8 -10 3 -5 1 -10 -6 -10 -12 0
-127 -113 -118 -117 2 -1 2 -3 -1 -5 -3 -1 -4 -1 -3 1 1 2 -2 13 -8 24 -8 14
-8 18 0 13 7 -5 11 7 12 36 0 24 2 52 4 63 2 11 5 34 6 50 2 17 8 36 13 44 9
12 8 13 -4 6 -12 -7 -13 -6 -4 6 6 8 12 21 12 29 2 34 15 95 21 100 3 3 7 14
9 25 2 11 10 32 17 48 7 15 10 27 7 27 -4 -1 -42 -25 -84 -55z"/>
</g>
</svg>
